<svg xmlns="http://www.w3.org/2000/svg" viewBox="0 0 120.83 153.36"><defs><style>.cls-1{fill:#231f20;}</style></defs><title>Asset 1</title><g id="Layer_2" data-name="Layer 2"><g id="Layer_1-2" data-name="Layer 1"><path class="cls-1" d="M28.27,0C12.66,0,0,9,0,20.19v4.29H34v5.81H0V97.64a9,9,0,0,0,9,9H38.34V63.77a9,9,0,0,1,9-9H67.68a9,9,0,0,0,9-9V0Z"/><path class="cls-1" d="M120.83,106.64V9a9,9,0,0,0-9-9H82.49V67.68a9,9,0,0,1-9,9H53.15a9,9,0,0,0-9,9v58.68a9,9,0,0,0,9,9H87.53a33.3,33.3,0,0,0,33.3-33.3v-7.61h-34v-5.81Z"/></g></g></svg>